<svg version="1.0" xmlns="http://www.w3.org/2000/svg"
 width="204.000000pt" height="192.000000pt" viewBox="0 0 204.000000 192.000000"
 preserveAspectRatio="xMidYMid meet">

<g transform="translate(0.000000,192.000000) scale(0.100000,-0.100000)"
fill="#000000" stroke="none">
<path d="M822 1599 c-80 -40 -141 -109 -197 -223 -44 -88 -80 -205 -73 -228 3
-7 76 -24 169 -39 207 -35 237 -45 267 -89 22 -33 23 -42 20 -178 l-3 -142 36
0 36 0 -1 155 -1 154 28 28 27 28 171 3 171 3 -6 62 c-10 85 -43 226 -71 297
-30 76 -59 116 -97 136 -57 29 -92 -5 -118 -115 l-13 -54 -28 61 c-38 84 -73
127 -123 151 -61 30 -121 27 -194 -10z m48 -49 c0 -5 -7 -10 -16 -10 -8 0 -12
5 -9 10 3 6 10 10 16 10 5 0 9 -4 9 -10z m70 -61 c0 -5 -7 -9 -15 -9 -15 0
-20 12 -9 23 8 8 24 -1 24 -14z m-230 -19 c0 -5 -4 -10 -10 -10 -5 0 -10 5
-10 10 0 6 5 10 10 10 6 0 10 -4 10 -10z m76 -41 c10 -17 -13 -36 -27 -22 -12
12 -4 33 11 33 5 0 12 -5 16 -11z m124 -75 c0 -9 -5 -14 -12 -12 -18 6 -21 28
-4 28 9 0 16 -7 16 -16z"/>
<path d="M744 821 c10 -16 132 -60 185 -67 48 -6 51 -5 51 15 0 29 -19 63 -31
56 -15 -10 -10 -25 9 -26 10 0 12 -2 4 -6 -7 -3 -23 2 -36 10 -17 12 -26 13
-35 4 -8 -8 -11 -8 -11 2 0 9 -5 8 -16 -3 -17 -17 -39 -22 -29 -7 3 5 1 12 -5
16 -5 3 -10 1 -10 -4 0 -6 -7 -11 -15 -11 -9 0 -12 6 -9 18 5 15 4 15 -6 2 -9
-11 -13 -12 -17 -2 -2 6 -11 12 -19 12 -9 0 -13 -4 -10 -9z m171 -31 c3 -5 1
-10 -4 -10 -6 0 -11 5 -11 10 0 6 2 10 4 10 3 0 8 -4 11 -10z"/>
<path d="M623 709 c-86 -25 -101 -156 -23 -202 38 -23 86 -21 126 4 37 23 54
65 46 117 -4 31 -45 82 -66 82 -6 0 -20 2 -31 4 -11 3 -34 0 -52 -5z m75 -61
c19 -19 14 -73 -9 -94 -19 -17 -23 -17 -47 -3 -30 16 -42 70 -21 95 14 17 61
18 77 2z"/>
<path d="M1160 605 l0 -116 28 3 27 3 0 110 0 110 -27 3 -28 3 0 -116z"/>
<path d="M1250 605 l0 -116 28 3 27 3 0 110 0 110 -27 3 -28 3 0 -116z"/>
<path d="M817 653 c-26 -4 -28 -7 -22 -36 4 -18 17 -52 29 -77 19 -38 27 -45
52 -45 25 0 32 7 51 45 12 25 24 60 28 78 6 30 5 32 -24 32 -28 0 -30 -3 -37
-45 -9 -64 -21 -64 -34 0 -6 30 -12 54 -13 54 -1 -1 -15 -4 -30 -6z"/>
<path d="M1003 650 c-25 -10 -26 -11 -17 -33 4 -11 16 -14 45 -10 25 4 39 2
39 -6 0 -6 -12 -11 -28 -11 -35 0 -72 -26 -72 -50 0 -39 71 -62 138 -44 19 5
22 13 22 53 0 69 -9 89 -42 100 -36 13 -55 13 -85 1z m67 -105 c0 -8 -9 -15
-20 -15 -20 0 -26 11 -13 23 12 13 33 7 33 -8z"/>
<path d="M1380 647 c-63 -32 -59 -132 7 -150 45 -13 103 -1 103 22 0 26 -8 30
-41 18 -24 -9 -32 -8 -46 6 -16 16 -14 17 40 17 63 0 69 8 42 59 -20 39 -61
50 -105 28z m58 -45 c2 -7 -7 -12 -23 -12 -24 0 -26 2 -15 15 14 17 31 16 38
-3z"/>
<path d="M570 435 c0 -14 4 -25 9 -25 4 0 6 11 3 25 -2 14 -6 25 -8 25 -2 0
-4 -11 -4 -25z"/>
<path d="M672 448 c2 -6 11 -13 19 -16 12 -3 12 -2 0 6 -11 8 -11 10 0 15 10
4 8 6 -4 6 -10 1 -17 -4 -15 -11z"/>
<path d="M728 453 c7 -3 16 -2 19 1 4 3 -2 6 -13 5 -11 0 -14 -3 -6 -6z"/>
<path d="M778 453 c7 -3 16 -2 19 1 4 3 -2 6 -13 5 -11 0 -14 -3 -6 -6z"/>
<path d="M828 453 c7 -3 16 -2 19 1 4 3 -2 6 -13 5 -11 0 -14 -3 -6 -6z"/>
<path d="M891 444 c0 -11 3 -14 6 -6 3 7 2 16 -1 19 -3 4 -6 -2 -5 -13z"/>
<path d="M926 445 c-3 -8 -1 -15 4 -15 6 0 10 7 10 15 0 8 -2 15 -4 15 -2 0
-6 -7 -10 -15z"/>
<path d="M950 441 c0 -11 4 -22 9 -25 4 -3 6 6 3 19 -5 30 -12 33 -12 6z"/>
<path d="M992 440 c0 -14 2 -19 5 -12 2 6 2 18 0 25 -3 6 -5 1 -5 -13z"/>
<path d="M1010 451 c0 -5 5 -13 10 -16 6 -3 10 -2 10 4 0 5 -4 13 -10 16 -5 3
-10 2 -10 -4z"/>
<path d="M1072 435 c0 -16 2 -22 5 -12 2 9 2 23 0 30 -3 6 -5 -1 -5 -18z"/>
<path d="M1099 443 c-13 -17 -13 -17 6 -3 11 8 22 16 24 17 2 2 0 3 -6 3 -6 0
-17 -8 -24 -17z"/>
<path d="M1171 433 c1 -23 2 -24 6 -5 5 23 18 29 26 12 3 -6 4 -5 3 2 -1 7
-10 14 -19 16 -13 3 -17 -3 -16 -25z"/>
<path d="M1230 454 c0 -6 7 -19 16 -30 14 -18 14 -18 3 6 -14 31 -19 36 -19
24z"/>
<path d="M1272 435 c0 -16 2 -22 5 -12 2 9 2 23 0 30 -3 6 -5 -1 -5 -18z"/>
<path d="M1353 454 c13 -4 17 -12 14 -25 -3 -10 -1 -19 5 -19 19 0 3 45 -17
47 -17 2 -17 1 -2 -3z"/>
<path d="M1410 455 c0 -5 5 -17 10 -25 5 -8 10 -10 10 -5 0 6 -5 17 -10 25 -5
8 -10 11 -10 5z"/>
<path d="M1451 433 c2 -25 2 -26 6 -5 3 16 10 22 19 18 9 -3 12 -1 9 4 -13 21
-35 10 -34 -17z"/>
<path d="M821 424 c0 -11 3 -14 6 -6 3 7 2 16 -1 19 -3 4 -6 -2 -5 -13z"/>
<path d="M1046 431 c-4 -7 -5 -15 -2 -18 9 -9 19 4 14 18 -4 11 -6 11 -12 0z"/>
<path d="M1475 420 c-3 -5 -1 -10 4 -10 6 0 11 5 11 10 0 6 -2 10 -4 10 -3 0
-8 -4 -11 -10z"/>
<path d="M1248 363 c45 -2 119 -2 165 0 45 1 8 3 -83 3 -91 0 -128 -2 -82 -3z"/>
</g>
</svg>
